<?xml version="1.0" standalone="no"?>
<!DOCTYPE svg PUBLIC "-//W3C//DTD SVG 20010904//EN"
 "http://www.w3.org/TR/2001/REC-SVG-20010904/DTD/svg10.dtd">
<svg version="1.0" xmlns="http://www.w3.org/2000/svg"
 width="1024.000000pt" height="1024.000000pt" viewBox="0 0 1024.000000 1024.000000"
 preserveAspectRatio="xMidYMid meet">

<g transform="translate(0.000000,1024.000000) scale(0.100000,-0.100000)"
fill="#000000" stroke="none">
<path d="M3575 8770 c-806 -8 -808 -8 -1000 -55 -497 -122 -908 -535 -1040
-1045 -9 -35 -25 -122 -36 -194 -18 -126 -19 -211 -19 -2346 0 -2411 -2 -2301
56 -2524 143 -545 591 -968 1144 -1080 200 -40 184 -40 2450 -40 2372 1 2283
-1 2502 54 484 124 862 468 1028 935 33 95 51 165 78 305 15 77 17 302 20
2300 2 1495 -1 2247 -8 2313 -41 388 -183 697 -434 946 -247 246 -535 381
-896 420 -122 13 -2799 21 -3845 11z m3795 -440 c430 -46 757 -302 890 -698
64 -192 61 -44 60 -2494 0 -2427 2 -2303 -56 -2483 -119 -365 -402 -615 -794
-704 l-115 -25 -2165 -4 c-1602 -2 -2194 0 -2275 8 -290 31 -501 125 -681 305
-175 174 -270 367 -310 629 -11 75 -14 465 -14 2258 0 2383 -2 2305 60 2490
112 333 355 573 682 672 181 56 97 54 2448 55 1385 0 2210 -3 2270 -9z"/>
<path d="M3608 7280 c-53 -16 -97 -51 -117 -94 l-21 -42 0 -1984 0 -1984 21
-44 c32 -64 86 -97 163 -97 70 0 19 -26 591 307 327 190 1258 731 2435 1415
427 248 480 288 494 371 11 69 -9 120 -66 173 -27 25 -147 102 -266 171 -119
69 -467 271 -772 448 -305 177 -670 389 -810 470 -140 81 -534 309 -875 507
-341 197 -639 367 -663 376 -46 18 -72 20 -114 7z"/>
</g>
</svg>
